<?xml version="1.0" standalone="no"?>
<!DOCTYPE svg PUBLIC "-//W3C//DTD SVG 20010904//EN"
 "http://www.w3.org/TR/2001/REC-SVG-20010904/DTD/svg10.dtd">
<svg version="1.0" xmlns="http://www.w3.org/2000/svg"
 width="860.000000pt" height="576.000000pt" viewBox="0 0 860.000000 576.000000"
 preserveAspectRatio="xMidYMid meet">

<g transform="translate(0.000000,576.000000) scale(0.100000,-0.100000)"
fill="#000000" stroke="none">
<path d="M3795 5344 c-313 -49 -586 -192 -812 -427 -91 -94 -189 -230 -243
-337 -73 -145 -131 -349 -145 -513 -7 -75 -9 -78 -30 -73 -57 14 -168 26 -255
26 -317 0 -617 -125 -845 -354 -153 -153 -256 -333 -312 -543 -36 -137 -43
-394 -15 -528 11 -49 18 -93 15 -97 -2 -5 -22 -8 -44 -8 -117 0 -288 -59 -417
-142 -364 -238 -496 -723 -302 -1111 124 -248 347 -418 619 -473 102 -20 282
-15 381 11 71 19 213 82 260 115 l30 22 81 -76 c317 -294 807 -466 1329 -466
466 0 925 149 1186 384 29 25 55 46 59 46 3 0 25 -13 48 -29 108 -74 270 -139
410 -166 104 -20 321 -20 427 1 259 49 507 204 635 397 l37 56 51 -26 c155
-78 306 -114 512 -120 368 -12 705 107 944 333 75 70 167 198 197 272 15 39
19 43 43 37 131 -34 250 -22 370 36 313 153 389 559 151 812 -142 152 -342
204 -537 142 -42 -13 -78 -23 -79 -22 -1 1 -13 35 -27 75 -37 106 -82 176
-167 262 -85 85 -156 130 -259 166 -148 52 -306 53 -452 4 -34 -12 -64 -18
-67 -15 -4 3 -12 32 -18 63 -54 265 -262 531 -509 651 -163 80 -286 106 -483
99 l-130 -4 -5 166 c-8 233 -41 368 -142 575 -269 554 -880 874 -1490 779z
m425 -39 c146 -22 263 -59 405 -130 155 -77 271 -162 387 -284 188 -198 315
-448 364 -718 22 -123 21 -355 -1 -422 -9 -28 -13 -55 -10 -61 11 -17 33 8 46
51 10 33 16 38 48 43 200 30 396 -1 571 -89 251 -127 450 -392 495 -663 6 -40
5 -45 -33 -86 -55 -60 -68 -84 -47 -92 11 -4 22 2 33 17 51 74 134 121 257
144 98 19 157 19 253 -1 240 -48 446 -239 505 -466 15 -56 14 -58 -9 -89 -26
-36 -32 -79 -10 -79 7 0 19 14 26 30 19 46 64 77 142 101 58 18 87 21 168 17
86 -4 107 -9 172 -40 91 -44 150 -95 200 -172 123 -190 98 -434 -60 -599 -157
-163 -438 -190 -604 -57 -43 35 -58 38 -58 11 0 -11 21 -33 55 -56 30 -21 55
-43 55 -49 -1 -21 -39 -95 -78 -154 -121 -177 -355 -337 -597 -407 -256 -74
-552 -74 -778 0 -60 19 -188 76 -205 90 -1 1 3 16 9 34 9 26 9 35 -2 41 -18
12 -26 5 -40 -38 -18 -56 -74 -139 -143 -210 -274 -287 -739 -377 -1135 -220
-132 52 -270 144 -293 194 -12 25 -48 33 -48 12 0 -7 10 -29 21 -48 l21 -34
-43 -38 c-24 -21 -80 -62 -124 -92 -263 -176 -587 -270 -970 -283 -540 -18
-1050 148 -1365 444 l-81 76 31 31 c16 18 30 37 30 43 0 28 -24 21 -71 -21
-241 -217 -634 -259 -928 -99 -228 123 -380 332 -428 588 -20 104 -13 272 16
373 100 349 432 605 781 604 47 -1 96 -2 110 -4 44 -5 30 26 -17 36 -41 9 -42
10 -57 73 -27 104 -36 232 -26 360 39 497 382 904 867 1029 124 32 322 43 452
24 49 -7 93 -15 98 -19 5 -3 14 -26 19 -51 6 -29 14 -45 24 -45 13 0 14 16 12
100 -8 230 75 515 211 726 217 338 577 570 972 628 96 14 302 12 405 -4z"/>
</g>
</svg>
